<svg width="16" height="16" viewBox="0 0 16 16" fill="none" xmlns="http://www.w3.org/2000/svg">
<rect width="16" height="16" fill="#F5F5F5"/>
<g id="Wireframe - 1" clip-path="url(#clip0_38_21)">
<rect width="1440" height="2854" transform="translate(-399 -1381)" fill="#202127"/>
<g id="Frame 20">
<g id="Frame 19">
<g id="Frame 17">
<rect x="-249" y="-421" width="1140" height="600" rx="20" fill="url(#paint0_linear_38_21)"/>
<g id="Frame 16">
<g id="Frame 14">
<g id="Frame 13">
<g id="external-link">
<path id="Vector" d="M12 8.66667V12.6667C12 13.0203 11.8595 13.3594 11.6095 13.6095C11.3594 13.8595 11.0203 14 10.6667 14H3.33333C2.97971 14 2.64057 13.8595 2.39052 13.6095C2.14048 13.3594 2 13.0203 2 12.6667V5.33333C2 4.97971 2.14048 4.64057 2.39052 4.39052C2.64057 4.14048 2.97971 4 3.33333 4H7.33333" stroke="white" stroke-width="1.5" stroke-linecap="round" stroke-linejoin="round"/>
<path id="Vector_2" d="M10 2H14V6" stroke="white" stroke-width="1.5" stroke-linecap="round" stroke-linejoin="round"/>
<path id="Vector_3" d="M6.66666 9.33333L14 2" stroke="white" stroke-width="1.5" stroke-linecap="round" stroke-linejoin="round"/>
</g>
</g>
</g>
</g>
</g>
</g>
</g>
</g>
<defs>
<linearGradient id="paint0_linear_38_21" x1="732.5" y1="-437.5" x2="-58" y2="306.5" gradientUnits="userSpaceOnUse">
<stop offset="0.354576" stop-color="#43A0F5"/>
<stop offset="1" stop-color="#4CBDFF"/>
</linearGradient>
<clipPath id="clip0_38_21">
<rect width="1440" height="2854" fill="white" transform="translate(-399 -1381)"/>
</clipPath>
</defs>
</svg>
